<svg width="400" height="400" viewBox="0 0 400 400" fill="none" xmlns="http://www.w3.org/2000/svg">
<path d="M245.163 135H153.402C150.992 135 149.039 137.671 149.039 140.95C149.039 144.23 150.992 146.901 153.402 146.901H245.163C251.282 146.901 256.267 153.692 256.267 162.058V238.949C256.267 247.301 251.282 254.092 245.163 254.092H153.837C147.718 254.092 142.733 247.301 142.733 238.949V161.466C142.733 158.171 140.774 155.508 138.358 155.508C135.953 155.508 134 158.171 134 161.466V238.949C134 253.874 142.898 266 153.837 266H245.163C256.102 266 265 253.874 265 238.949V162.058C265 147.126 256.102 135 245.163 135ZM230.499 219.537C227.847 219.537 225.701 216.603 225.701 213.009C225.701 209.707 223.742 207.043 221.331 207.043C218.921 207.043 216.968 209.707 216.968 213.009C216.968 221.075 220.82 227.889 226.13 230.38V233.749C226.13 237.036 228.089 239.714 230.499 239.714C232.914 239.714 234.862 237.036 234.862 233.749V230.38C240.178 227.889 244.024 221.075 244.024 213.009C244.024 202.819 237.96 194.542 230.499 194.542C227.847 194.542 225.701 191.608 225.701 188.006C225.701 184.397 227.847 181.463 230.499 181.463C233.14 181.463 235.292 184.397 235.292 188.006C235.292 191.293 237.245 193.964 239.661 193.964C242.071 193.964 244.024 191.293 244.024 188.006C244.024 179.925 240.178 173.126 234.862 170.628V167.243C234.862 163.957 232.914 161.286 230.499 161.286C228.089 161.286 226.13 163.957 226.13 167.243V170.628C220.82 173.126 216.968 179.925 216.968 188.006C216.968 198.181 223.037 206.45 230.499 206.45C233.14 206.45 235.292 209.384 235.292 213.009C235.292 216.603 233.14 219.537 230.499 219.537ZM155.829 236.233H199.497C201.907 236.233 203.861 233.554 203.861 230.275C203.861 226.996 201.907 224.324 199.497 224.324H155.829C153.419 224.324 151.465 226.996 151.465 230.275C151.465 233.554 153.419 236.233 155.829 236.233ZM155.829 176.683H199.497C201.907 176.683 203.861 174.012 203.861 170.733C203.861 167.439 201.907 164.775 199.497 164.775H155.829C153.419 164.775 151.465 167.439 151.465 170.733C151.465 174.012 153.419 176.683 155.829 176.683ZM155.829 206.45H199.497C201.907 206.45 203.861 203.787 203.861 200.492C203.861 197.206 201.907 194.542 199.497 194.542H155.829C153.419 194.542 151.465 197.206 151.465 200.492C151.465 203.787 153.419 206.45 155.829 206.45Z" fill="white"/>
</svg>
