<svg width="400" height="400" viewBox="0 0 400 400" fill="none" xmlns="http://www.w3.org/2000/svg">
<path d="M271.109 98H128.214C124.461 98 121.419 102.16 121.419 107.266C121.419 112.373 124.461 116.533 128.214 116.533H271.109C280.638 116.533 288.401 127.108 288.401 140.137V259.875C288.401 272.881 280.638 283.456 271.109 283.456H128.891C119.362 283.456 111.599 272.881 111.599 259.875V139.214C111.599 134.084 108.548 129.936 104.787 129.936C101.042 129.936 98 134.084 98 139.214V259.875C98 283.117 111.856 302 128.891 302H271.109C288.144 302 302 283.117 302 259.875V140.137C302 116.883 288.144 98 271.109 98ZM248.273 229.645C244.143 229.645 240.801 225.076 240.801 219.479C240.801 214.338 237.75 210.189 233.997 210.189C230.244 210.189 227.202 214.338 227.202 219.479C227.202 232.041 233.2 242.651 241.469 246.53V251.777C241.469 256.895 244.52 261.067 248.273 261.067C252.035 261.067 255.068 256.895 255.068 251.777V246.53C263.346 242.651 269.335 232.041 269.335 219.479C269.335 203.611 259.892 190.722 248.273 190.722C244.143 190.722 240.801 186.153 240.801 180.544C240.801 174.924 244.143 170.355 248.273 170.355C252.386 170.355 255.736 174.924 255.736 180.544C255.736 185.662 258.778 189.822 262.54 189.822C266.293 189.822 269.335 185.662 269.335 180.544C269.335 167.959 263.346 157.372 255.068 153.481V148.211C255.068 143.093 252.035 138.933 248.273 138.933C244.52 138.933 241.469 143.093 241.469 148.211V153.481C233.2 157.372 227.202 167.959 227.202 180.544C227.202 196.389 236.653 209.266 248.273 209.266C252.386 209.266 255.736 213.835 255.736 219.479C255.736 225.076 252.386 229.645 248.273 229.645ZM131.993 255.645H199.996C203.749 255.645 206.791 251.473 206.791 246.367C206.791 241.26 203.749 237.1 199.996 237.1H131.993C128.24 237.1 125.198 241.26 125.198 246.367C125.198 251.473 128.24 255.645 131.993 255.645ZM131.993 162.911H199.996C203.749 162.911 206.791 158.751 206.791 153.645C206.791 148.515 203.749 144.367 199.996 144.367H131.993C128.24 144.367 125.198 148.515 125.198 153.645C125.198 158.751 128.24 162.911 131.993 162.911ZM131.993 209.266H199.996C203.749 209.266 206.791 205.118 206.791 199.988C206.791 194.87 203.749 190.722 199.996 190.722H131.993C128.24 190.722 125.198 194.87 125.198 199.988C125.198 205.118 128.24 209.266 131.993 209.266Z" fill="white"/>
</svg>
