<svg width="333" height="230" viewBox="0 0 333 230" fill="none" xmlns="http://www.w3.org/2000/svg">
<path d="M206.378 0H97.1048C94.2347 0 91.9085 3.18112 91.9085 7.08604C91.9085 10.991 94.2347 14.1721 97.1048 14.1721H206.378C213.664 14.1721 219.601 22.2589 219.601 32.2223V123.787C219.601 133.732 213.664 141.819 206.378 141.819H97.6225C90.3359 141.819 84.3991 133.732 84.3991 123.787V31.5163C84.3991 27.5935 82.0664 24.4214 79.1897 24.4214C76.3262 24.4214 74 27.5935 74 31.5163V123.787C74 141.56 84.5957 156 97.6225 156H206.378C219.404 156 230 141.56 230 123.787V32.2223C230 14.4401 219.404 0 206.378 0ZM188.915 100.67C185.756 100.67 183.201 97.1761 183.201 92.8959C183.201 88.9642 180.868 85.792 177.998 85.792C175.128 85.792 172.802 88.9642 172.802 92.8959C172.802 102.502 177.388 110.615 183.712 113.582V117.594C183.712 121.508 186.045 124.698 188.915 124.698C191.791 124.698 194.111 121.508 194.111 117.594V113.582C200.441 110.615 205.021 102.502 205.021 92.8959C205.021 80.7611 197.8 70.905 188.915 70.905C185.756 70.905 183.201 67.4112 183.201 63.122C183.201 58.8239 185.756 55.33 188.915 55.33C192.06 55.33 194.622 58.8239 194.622 63.122C194.622 67.0359 196.948 70.217 199.825 70.217C202.695 70.217 205.021 67.0359 205.021 63.122C205.021 53.4982 200.441 45.4025 194.111 42.4269V38.3968C194.111 34.483 191.791 31.3019 188.915 31.3019C186.045 31.3019 183.712 34.483 183.712 38.3968V42.4269C177.388 45.4025 172.802 53.4982 172.802 63.122C172.802 75.2389 180.029 85.086 188.915 85.086C192.06 85.086 194.622 88.5799 194.622 92.8959C194.622 97.1761 192.06 100.67 188.915 100.67ZM99.9945 120.552H151.997C154.867 120.552 157.193 117.362 157.193 113.457C157.193 109.552 154.867 106.371 151.997 106.371H99.9945C97.1245 106.371 94.7983 109.552 94.7983 113.457C94.7983 117.362 97.1245 120.552 99.9945 120.552ZM99.9945 49.638H151.997C154.867 49.638 157.193 46.4569 157.193 42.552C157.193 38.6292 154.867 35.457 151.997 35.457H99.9945C97.1245 35.457 94.7983 38.6292 94.7983 42.552C94.7983 46.4569 97.1245 49.638 99.9945 49.638ZM99.9945 85.086H151.997C154.867 85.086 157.193 81.9139 157.193 77.9911C157.193 74.0772 154.867 70.905 151.997 70.905H99.9945C97.1245 70.905 94.7983 74.0772 94.7983 77.9911C94.7983 81.9139 97.1245 85.086 99.9945 85.086Z" fill="white"/>
<path d="M22.5568 199.875H17.5795C17.4886 199.231 17.303 198.659 17.0227 198.159C16.7424 197.652 16.3826 197.22 15.9432 196.864C15.5038 196.508 14.9962 196.235 14.4205 196.045C13.8523 195.856 13.2348 195.761 12.5682 195.761C11.3636 195.761 10.3144 196.061 9.42045 196.659C8.52652 197.25 7.83333 198.114 7.34091 199.25C6.84849 200.379 6.60227 201.75 6.60227 203.364C6.60227 205.023 6.84849 206.417 7.34091 207.545C7.84091 208.674 8.53788 209.527 9.43182 210.102C10.3258 210.678 11.3598 210.966 12.5341 210.966C13.1932 210.966 13.803 210.879 14.3636 210.705C14.9318 210.53 15.4356 210.277 15.875 209.943C16.3144 209.602 16.678 209.189 16.9659 208.705C17.2614 208.22 17.4659 207.667 17.5795 207.045L22.5568 207.068C22.428 208.136 22.1061 209.167 21.5909 210.159C21.0833 211.144 20.3977 212.027 19.5341 212.807C18.678 213.58 17.6553 214.193 16.4659 214.648C15.2841 215.095 13.947 215.318 12.4545 215.318C10.3788 215.318 8.52273 214.848 6.88636 213.909C5.25758 212.97 3.9697 211.61 3.02273 209.83C2.08333 208.049 1.61364 205.894 1.61364 203.364C1.61364 200.826 2.09091 198.667 3.04545 196.886C4 195.106 5.29545 193.75 6.93182 192.818C8.56818 191.879 10.4091 191.409 12.4545 191.409C13.803 191.409 15.053 191.598 16.2045 191.977C17.3636 192.356 18.3902 192.909 19.2841 193.636C20.178 194.356 20.9053 195.239 21.4659 196.284C22.0341 197.33 22.3977 198.527 22.5568 199.875ZM33.8807 215.341C32.1155 215.341 30.589 214.966 29.3011 214.216C28.0208 213.458 27.0322 212.405 26.3352 211.057C25.6383 209.701 25.2898 208.129 25.2898 206.341C25.2898 204.538 25.6383 202.962 26.3352 201.614C27.0322 200.258 28.0208 199.205 29.3011 198.455C30.589 197.697 32.1155 197.318 33.8807 197.318C35.6458 197.318 37.1686 197.697 38.4489 198.455C39.7367 199.205 40.7292 200.258 41.4261 201.614C42.1231 202.962 42.4716 204.538 42.4716 206.341C42.4716 208.129 42.1231 209.701 41.4261 211.057C40.7292 212.405 39.7367 213.458 38.4489 214.216C37.1686 214.966 35.6458 215.341 33.8807 215.341ZM33.9034 211.591C34.7064 211.591 35.3769 211.364 35.9148 210.909C36.4527 210.447 36.858 209.818 37.1307 209.023C37.411 208.227 37.5511 207.322 37.5511 206.307C37.5511 205.292 37.411 204.386 37.1307 203.591C36.858 202.795 36.4527 202.167 35.9148 201.705C35.3769 201.242 34.7064 201.011 33.9034 201.011C33.0928 201.011 32.411 201.242 31.858 201.705C31.3125 202.167 30.8996 202.795 30.6193 203.591C30.3466 204.386 30.2102 205.292 30.2102 206.307C30.2102 207.322 30.3466 208.227 30.6193 209.023C30.8996 209.818 31.3125 210.447 31.858 210.909C32.411 211.364 33.0928 211.591 33.9034 211.591ZM50.4602 204.909V215H45.6193V197.545H50.233V200.625H50.4375C50.8239 199.61 51.4716 198.807 52.3807 198.216C53.2898 197.617 54.392 197.318 55.6875 197.318C56.8996 197.318 57.9564 197.583 58.858 198.114C59.7595 198.644 60.4602 199.402 60.9602 200.386C61.4602 201.364 61.7102 202.53 61.7102 203.886V215H56.8693V204.75C56.8769 203.682 56.6042 202.848 56.0511 202.25C55.4981 201.644 54.7367 201.341 53.767 201.341C53.1155 201.341 52.5398 201.481 52.0398 201.761C51.5473 202.042 51.161 202.451 50.8807 202.989C50.608 203.519 50.4678 204.159 50.4602 204.909ZM74.8097 197.545V201.182H64.2983V197.545H74.8097ZM66.6847 193.364H71.5256V209.636C71.5256 210.083 71.5938 210.432 71.7301 210.682C71.8665 210.924 72.0559 211.095 72.2983 211.193C72.5483 211.292 72.8362 211.341 73.1619 211.341C73.3892 211.341 73.6165 211.322 73.8438 211.284C74.071 211.239 74.2453 211.205 74.3665 211.182L75.1278 214.784C74.8854 214.86 74.5445 214.947 74.1051 215.045C73.6657 215.152 73.1316 215.216 72.5028 215.239C71.3362 215.284 70.3134 215.129 69.4347 214.773C68.5634 214.417 67.8854 213.864 67.4006 213.114C66.9157 212.364 66.6771 211.417 66.6847 210.273V193.364ZM77.9631 215V197.545H82.6562V200.591H82.8381C83.1563 199.508 83.6903 198.689 84.4403 198.136C85.1903 197.576 86.054 197.295 87.0312 197.295C87.2737 197.295 87.535 197.311 87.8153 197.341C88.0956 197.371 88.3419 197.413 88.554 197.466V201.761C88.3267 201.693 88.0123 201.633 87.6108 201.58C87.2093 201.527 86.8419 201.5 86.5085 201.5C85.7964 201.5 85.16 201.655 84.5994 201.966C84.0464 202.269 83.607 202.693 83.2812 203.239C82.9631 203.784 82.804 204.413 82.804 205.125V215H77.9631ZM98.1307 215.341C96.3655 215.341 94.839 214.966 93.5511 214.216C92.2708 213.458 91.2822 212.405 90.5852 211.057C89.8883 209.701 89.5398 208.129 89.5398 206.341C89.5398 204.538 89.8883 202.962 90.5852 201.614C91.2822 200.258 92.2708 199.205 93.5511 198.455C94.839 197.697 96.3655 197.318 98.1307 197.318C99.8958 197.318 101.419 197.697 102.699 198.455C103.987 199.205 104.979 200.258 105.676 201.614C106.373 202.962 106.722 204.538 106.722 206.341C106.722 208.129 106.373 209.701 105.676 211.057C104.979 212.405 103.987 213.458 102.699 214.216C101.419 214.966 99.8958 215.341 98.1307 215.341ZM98.1534 211.591C98.9564 211.591 99.6269 211.364 100.165 210.909C100.703 210.447 101.108 209.818 101.381 209.023C101.661 208.227 101.801 207.322 101.801 206.307C101.801 205.292 101.661 204.386 101.381 203.591C101.108 202.795 100.703 202.167 100.165 201.705C99.6269 201.242 98.9564 201.011 98.1534 201.011C97.3428 201.011 96.661 201.242 96.108 201.705C95.5625 202.167 95.1496 202.795 94.8693 203.591C94.5966 204.386 94.4602 205.292 94.4602 206.307C94.4602 207.322 94.5966 208.227 94.8693 209.023C95.1496 209.818 95.5625 210.447 96.108 210.909C96.661 211.364 97.3428 211.591 98.1534 211.591ZM114.71 191.727V215H109.869V191.727H114.71ZM126.543 215.341C124.747 215.341 123.202 214.977 121.906 214.25C120.618 213.515 119.626 212.477 118.929 211.136C118.232 209.788 117.884 208.193 117.884 206.352C117.884 204.557 118.232 202.981 118.929 201.625C119.626 200.269 120.607 199.212 121.872 198.455C123.145 197.697 124.637 197.318 126.349 197.318C127.501 197.318 128.573 197.504 129.565 197.875C130.565 198.239 131.437 198.788 132.179 199.523C132.929 200.258 133.512 201.182 133.929 202.295C134.346 203.402 134.554 204.697 134.554 206.182V207.511H119.815V204.511H129.997C129.997 203.814 129.846 203.197 129.543 202.659C129.24 202.121 128.819 201.701 128.281 201.398C127.751 201.087 127.134 200.932 126.429 200.932C125.694 200.932 125.043 201.102 124.474 201.443C123.914 201.777 123.474 202.227 123.156 202.795C122.838 203.356 122.675 203.981 122.668 204.67V207.523C122.668 208.386 122.827 209.133 123.145 209.761C123.471 210.39 123.929 210.875 124.52 211.216C125.111 211.557 125.812 211.727 126.622 211.727C127.16 211.727 127.652 211.652 128.099 211.5C128.546 211.348 128.929 211.121 129.247 210.818C129.565 210.515 129.808 210.144 129.974 209.705L134.452 210C134.224 211.076 133.759 212.015 133.054 212.818C132.357 213.614 131.455 214.235 130.349 214.682C129.251 215.121 127.982 215.341 126.543 215.341ZM145.21 215V191.727H160.619V195.784H150.131V201.33H159.597V205.386H150.131V215H145.21ZM163.838 215V197.545H168.679V215H163.838ZM166.27 195.295C165.55 195.295 164.933 195.057 164.418 194.58C163.91 194.095 163.656 193.515 163.656 192.841C163.656 192.174 163.91 191.602 164.418 191.125C164.933 190.64 165.55 190.398 166.27 190.398C166.99 190.398 167.603 190.64 168.111 191.125C168.626 191.602 168.884 192.174 168.884 192.841C168.884 193.515 168.626 194.095 168.111 194.58C167.603 195.057 166.99 195.295 166.27 195.295ZM177.398 204.909V215H172.557V197.545H177.17V200.625H177.375C177.761 199.61 178.409 198.807 179.318 198.216C180.227 197.617 181.33 197.318 182.625 197.318C183.837 197.318 184.894 197.583 185.795 198.114C186.697 198.644 187.398 199.402 187.898 200.386C188.398 201.364 188.648 202.53 188.648 203.886V215H183.807V204.75C183.814 203.682 183.542 202.848 182.989 202.25C182.436 201.644 181.674 201.341 180.705 201.341C180.053 201.341 179.477 201.481 178.977 201.761C178.485 202.042 178.098 202.451 177.818 202.989C177.545 203.519 177.405 204.159 177.398 204.909ZM197.44 215.33C196.327 215.33 195.334 215.136 194.463 214.75C193.592 214.356 192.902 213.777 192.395 213.011C191.895 212.239 191.645 211.277 191.645 210.125C191.645 209.155 191.823 208.341 192.179 207.682C192.535 207.023 193.02 206.492 193.634 206.091C194.247 205.689 194.944 205.386 195.724 205.182C196.512 204.977 197.338 204.833 198.202 204.75C199.217 204.644 200.035 204.545 200.656 204.455C201.277 204.356 201.728 204.212 202.009 204.023C202.289 203.833 202.429 203.553 202.429 203.182V203.114C202.429 202.394 202.202 201.837 201.747 201.443C201.3 201.049 200.664 200.852 199.838 200.852C198.967 200.852 198.274 201.045 197.759 201.432C197.243 201.811 196.902 202.288 196.736 202.864L192.259 202.5C192.486 201.439 192.933 200.523 193.599 199.75C194.266 198.97 195.126 198.371 196.179 197.955C197.24 197.53 198.467 197.318 199.861 197.318C200.83 197.318 201.759 197.432 202.645 197.659C203.539 197.886 204.33 198.239 205.02 198.716C205.717 199.193 206.266 199.807 206.668 200.557C207.069 201.299 207.27 202.189 207.27 203.227V215H202.679V212.58H202.543C202.262 213.125 201.887 213.606 201.418 214.023C200.948 214.432 200.384 214.754 199.724 214.989C199.065 215.216 198.304 215.33 197.44 215.33ZM198.827 211.989C199.539 211.989 200.168 211.848 200.713 211.568C201.259 211.28 201.687 210.894 201.997 210.409C202.308 209.924 202.463 209.375 202.463 208.761V206.909C202.312 207.008 202.103 207.098 201.838 207.182C201.58 207.258 201.289 207.33 200.963 207.398C200.637 207.458 200.312 207.515 199.986 207.568C199.66 207.614 199.365 207.655 199.099 207.693C198.531 207.777 198.035 207.909 197.611 208.091C197.187 208.273 196.857 208.519 196.622 208.83C196.387 209.133 196.27 209.511 196.27 209.966C196.27 210.625 196.509 211.129 196.986 211.477C197.471 211.818 198.084 211.989 198.827 211.989ZM215.866 204.909V215H211.026V197.545H215.639V200.625H215.844C216.23 199.61 216.878 198.807 217.787 198.216C218.696 197.617 219.798 197.318 221.094 197.318C222.306 197.318 223.363 197.583 224.264 198.114C225.166 198.644 225.866 199.402 226.366 200.386C226.866 201.364 227.116 202.53 227.116 203.886V215H222.276V204.75C222.283 203.682 222.01 202.848 221.457 202.25C220.904 201.644 220.143 201.341 219.173 201.341C218.522 201.341 217.946 201.481 217.446 201.761C216.954 202.042 216.567 202.451 216.287 202.989C216.014 203.519 215.874 204.159 215.866 204.909ZM238.818 215.341C237.03 215.341 235.492 214.962 234.205 214.205C232.924 213.439 231.939 212.379 231.25 211.023C230.568 209.667 230.227 208.106 230.227 206.341C230.227 204.553 230.572 202.985 231.261 201.636C231.958 200.28 232.947 199.223 234.227 198.466C235.508 197.701 237.03 197.318 238.795 197.318C240.318 197.318 241.652 197.595 242.795 198.148C243.939 198.701 244.845 199.477 245.511 200.477C246.178 201.477 246.545 202.652 246.614 204H242.045C241.917 203.129 241.576 202.428 241.023 201.898C240.477 201.36 239.761 201.091 238.875 201.091C238.125 201.091 237.47 201.295 236.909 201.705C236.356 202.106 235.924 202.693 235.614 203.466C235.303 204.239 235.148 205.174 235.148 206.273C235.148 207.386 235.299 208.333 235.602 209.114C235.913 209.894 236.348 210.489 236.909 210.898C237.47 211.307 238.125 211.511 238.875 211.511C239.428 211.511 239.924 211.398 240.364 211.17C240.811 210.943 241.178 210.614 241.466 210.182C241.761 209.742 241.955 209.216 242.045 208.602H246.614C246.538 209.936 246.174 211.11 245.523 212.125C244.879 213.133 243.989 213.92 242.852 214.489C241.716 215.057 240.371 215.341 238.818 215.341ZM257.668 215.341C255.872 215.341 254.327 214.977 253.031 214.25C251.743 213.515 250.751 212.477 250.054 211.136C249.357 209.788 249.009 208.193 249.009 206.352C249.009 204.557 249.357 202.981 250.054 201.625C250.751 200.269 251.732 199.212 252.997 198.455C254.27 197.697 255.762 197.318 257.474 197.318C258.626 197.318 259.698 197.504 260.69 197.875C261.69 198.239 262.562 198.788 263.304 199.523C264.054 200.258 264.637 201.182 265.054 202.295C265.471 203.402 265.679 204.697 265.679 206.182V207.511H250.94V204.511H261.122C261.122 203.814 260.971 203.197 260.668 202.659C260.365 202.121 259.944 201.701 259.406 201.398C258.876 201.087 258.259 200.932 257.554 200.932C256.819 200.932 256.168 201.102 255.599 201.443C255.039 201.777 254.599 202.227 254.281 202.795C253.963 203.356 253.8 203.981 253.793 204.67V207.523C253.793 208.386 253.952 209.133 254.27 209.761C254.596 210.39 255.054 210.875 255.645 211.216C256.236 211.557 256.937 211.727 257.747 211.727C258.285 211.727 258.777 211.652 259.224 211.5C259.671 211.348 260.054 211.121 260.372 210.818C260.69 210.515 260.933 210.144 261.099 209.705L265.577 210C265.349 211.076 264.884 212.015 264.179 212.818C263.482 213.614 262.58 214.235 261.474 214.682C260.376 215.121 259.107 215.341 257.668 215.341ZM268.838 215V197.545H273.679V215H268.838ZM271.27 195.295C270.55 195.295 269.933 195.057 269.418 194.58C268.91 194.095 268.656 193.515 268.656 192.841C268.656 192.174 268.91 191.602 269.418 191.125C269.933 190.64 270.55 190.398 271.27 190.398C271.99 190.398 272.603 190.64 273.111 191.125C273.626 191.602 273.884 192.174 273.884 192.841C273.884 193.515 273.626 194.095 273.111 194.58C272.603 195.057 271.99 195.295 271.27 195.295ZM277.557 215V197.545H282.25V200.591H282.432C282.75 199.508 283.284 198.689 284.034 198.136C284.784 197.576 285.648 197.295 286.625 197.295C286.867 197.295 287.129 197.311 287.409 197.341C287.689 197.371 287.936 197.413 288.148 197.466V201.761C287.92 201.693 287.606 201.633 287.205 201.58C286.803 201.527 286.436 201.5 286.102 201.5C285.39 201.5 284.754 201.655 284.193 201.966C283.64 202.269 283.201 202.693 282.875 203.239C282.557 203.784 282.398 204.413 282.398 205.125V215H277.557ZM297.724 215.341C295.959 215.341 294.433 214.966 293.145 214.216C291.865 213.458 290.876 212.405 290.179 211.057C289.482 209.701 289.134 208.129 289.134 206.341C289.134 204.538 289.482 202.962 290.179 201.614C290.876 200.258 291.865 199.205 293.145 198.455C294.433 197.697 295.959 197.318 297.724 197.318C299.49 197.318 301.012 197.697 302.293 198.455C303.58 199.205 304.573 200.258 305.27 201.614C305.967 202.962 306.315 204.538 306.315 206.341C306.315 208.129 305.967 209.701 305.27 211.057C304.573 212.405 303.58 213.458 302.293 214.216C301.012 214.966 299.49 215.341 297.724 215.341ZM297.747 211.591C298.55 211.591 299.221 211.364 299.759 210.909C300.296 210.447 300.702 209.818 300.974 209.023C301.255 208.227 301.395 207.322 301.395 206.307C301.395 205.292 301.255 204.386 300.974 203.591C300.702 202.795 300.296 202.167 299.759 201.705C299.221 201.242 298.55 201.011 297.747 201.011C296.937 201.011 296.255 201.242 295.702 201.705C295.156 202.167 294.743 202.795 294.463 203.591C294.19 204.386 294.054 205.292 294.054 206.307C294.054 207.322 294.19 208.227 294.463 209.023C294.743 209.818 295.156 210.447 295.702 210.909C296.255 211.364 296.937 211.591 297.747 211.591Z" fill="white"/>
</svg>
